<?xml version="1.0" encoding="UTF-8"?>
<svg width="800" height="600" viewBox="0 0 800 600" fill="none" xmlns="http://www.w3.org/2000/svg">
  <!-- Background Elements -->
  <circle cx="400" cy="300" r="250" fill="#F8FAFC" opacity="0.5"/>
  
  <!-- Main Character -->
  <g transform="translate(300, 200)">
    <!-- Head -->
    <circle cx="0" cy="-100" r="40" fill="#FFD700"/>
    <!-- Body -->
    <rect x="-30" y="-60" width="60" height="80" rx="10" fill="#4A90E2"/>
    <!-- Arms -->
    <rect x="-50" y="-50" width="20" height="60" rx="10" fill="#4A90E2"/>
    <rect x="30" y="-50" width="20" height="60" rx="10" fill="#4A90E2"/>
    <!-- Legs -->
    <rect x="-25" y="20" width="15" height="50" rx="5" fill="#2C3E50"/>
    <rect x="10" y="20" width="15" height="50" rx="5" fill="#2C3E50"/>
  </g>

  <!-- Career Elements -->
  <!-- Briefcase -->
  <rect x="450" y="250" width="80" height="50" rx="5" fill="#E74C3C"/>
  <rect x="460" y="260" width="60" height="30" rx="3" fill="#C0392B"/>
  
  <!-- Graduation Cap -->
  <path d="M200 150 L250 150 L225 120 Z" fill="#9B59B6"/>
  <rect x="210" y="150" width="30" height="10" fill="#8E44AD"/>
  
  <!-- Chart -->
  <rect x="500" y="150" width="100" height="100" fill="#2ECC71" opacity="0.8"/>
  <rect x="510" y="180" width="20" height="70" fill="#27AE60"/>
  <rect x="540" y="160" width="20" height="90" fill="#27AE60"/>
  <rect x="570" y="200" width="20" height="50" fill="#27AE60"/>
  
  <!-- Books -->
  <rect x="150" y="250" width="60" height="80" rx="5" fill="#F39C12"/>
  <rect x="160" y="260" width="40" height="60" fill="#E67E22"/>
  
  <!-- AI Elements -->
  <!-- Circuit Board -->
  <rect x="550" y="350" width="120" height="80" rx="10" fill="#34495E"/>
  <circle cx="580" cy="380" r="10" fill="#2ECC71"/>
  <circle cx="620" cy="380" r="10" fill="#E74C3C"/>
  <circle cx="660" cy="380" r="10" fill="#3498DB"/>
  
  <!-- Connection Lines -->
  <path d="M580 380 L620 380" stroke="#ECF0F1" stroke-width="2"/>
  <path d="M620 380 L660 380" stroke="#ECF0F1" stroke-width="2"/>
  
  <!-- Floating Elements -->
  <circle cx="100" cy="100" r="20" fill="#3498DB" opacity="0.6"/>
  <circle cx="700" cy="100" r="15" fill="#E74C3C" opacity="0.6"/>
  <circle cx="150" cy="400" r="25" fill="#2ECC71" opacity="0.6"/>
  <circle cx="650" cy="450" r="18" fill="#F39C12" opacity="0.6"/>
</svg> 